<svg xmlns="http://www.w3.org/2000/svg" xmlns:xlink="http://www.w3.org/1999/xlink" preserveAspectRatio="xMidYMid" width="47" height="33" viewBox="0 0 47 33">
  <defs>
    <style>
      .cls-1 {
        fill: #00aeef;
        fill-rule: evenodd;
      }
    </style>
  </defs>
  <path d="M43.213,20.486 C43.484,19.475 43.643,18.420 43.643,17.325 C43.643,10.491 38.006,4.950 31.054,4.950 C29.267,4.950 27.569,5.321 26.029,5.981 C24.484,2.465 20.930,-0.000 16.786,-0.000 C11.223,-0.000 6.714,4.433 6.714,9.900 C6.714,10.268 6.785,10.617 6.825,10.975 C2.799,12.807 0.000,16.803 0.000,21.450 C0.000,27.829 5.261,33.000 11.750,33.000 L40.286,33.000 C43.994,33.000 47.000,30.045 47.000,26.400 C47.000,23.791 45.448,21.558 43.213,20.486 ZM40.286,31.350 L11.750,31.350 C6.197,31.350 1.679,26.909 1.679,21.450 C1.679,17.614 3.975,14.090 7.530,12.472 L8.624,11.975 L8.493,10.795 C8.479,10.672 8.463,10.550 8.446,10.428 C8.422,10.255 8.393,10.081 8.393,9.900 C8.393,5.351 12.158,1.650 16.786,1.650 C20.134,1.650 23.158,3.607 24.488,6.636 L25.156,8.156 L26.700,7.494 C28.084,6.901 29.549,6.600 31.054,6.600 C37.070,6.600 41.964,11.411 41.964,17.325 C41.964,18.217 41.838,19.139 41.590,20.064 L41.238,21.374 L42.477,21.968 C44.231,22.811 45.321,24.508 45.321,26.400 C45.321,29.130 43.063,31.350 40.286,31.350 Z" class="cls-1"/>
</svg>
